<svg width="40" height="40" viewBox="0 0 40 40" fill="none" xmlns="http://www.w3.org/2000/svg">
<g clip-path="url(#clip0_1558_9650)">
<path d="M9.16667 6.66622L9.16667 14.9996M5 10.8329L13.3333 10.8329M10 27.4996L10 34.1662M6.66667 30.8329L13.3333 30.8329M19.1808 17.1385C19.8883 16.9363 20.2421 16.8353 20.5104 16.614C20.6068 16.5345 20.694 16.4443 20.7703 16.3453C20.9825 16.0698 21.0719 15.7123 21.2506 14.9971C22.2751 10.8994 22.7873 8.85046 23.733 8.5956C24.017 8.51904 24.3163 8.51904 24.6004 8.5956C25.546 8.85046 26.0583 10.8994 27.0827 14.9971C27.2615 15.7123 27.3509 16.0698 27.5631 16.3453C27.6393 16.4443 27.7265 16.5345 27.823 16.614C28.0912 16.8353 28.445 16.9363 29.1525 17.1385C32.6835 18.1474 34.4491 18.6518 34.7029 19.5433C34.7878 19.8416 34.7878 20.1577 34.7029 20.456C34.4491 21.3476 32.6835 21.852 29.1525 22.8609C28.445 23.063 28.0912 23.1641 27.823 23.3853C27.7265 23.4649 27.6393 23.555 27.5631 23.6541C27.3509 23.9295 27.2615 24.2871 27.0827 25.0022C26.0583 29.1 25.546 31.1489 24.6004 31.4037C24.3163 31.4803 24.017 31.4803 23.733 31.4037C22.7873 31.1489 22.2751 29.1 21.2506 25.0022C21.0719 24.2871 20.9825 23.9295 20.7703 23.6541C20.694 23.555 20.6068 23.4649 20.5104 23.3853C20.2421 23.1641 19.8883 23.063 19.1808 22.8609C15.6498 21.852 13.8843 21.3476 13.6305 20.456C13.5455 20.1577 13.5455 19.8416 13.6305 19.5433C13.8843 18.6518 15.6498 18.1474 19.1808 17.1385Z" stroke="white" stroke-width="2" stroke-linecap="round" stroke-linejoin="round"/>
</g>
<defs>
<clipPath id="clip0_1558_9650">
<rect width="40" height="40" fill="white"/>
</clipPath>
</defs>
</svg>
