<svg width="40" height="40" viewBox="0 0 40 40" fill="none" xmlns="http://www.w3.org/2000/svg">
<path d="M34.2861 19.2861C34.2861 27.5704 27.5704 34.2861 19.2861 34.2861C11.0019 34.2861 4.28613 27.5704 4.28613 19.2861C4.28613 11.0019 11.0019 4.28613 19.2861 4.28613C27.5704 4.28613 34.2861 11.0019 34.2861 19.2861Z" stroke="white" stroke-width="2.09627"/>
<path d="M29.7861 23.7871C29.7861 29.5861 25.0851 34.2871 19.2861 34.2871C13.4871 34.2871 8.78613 29.5861 8.78613 23.7871C8.78613 17.9881 13.4871 13.2871 19.2861 13.2871C25.0851 13.2871 29.7861 17.9881 29.7861 23.7871Z" stroke="white" stroke-width="2.09627"/>
<path d="M25.2852 28.2861C25.2852 31.5998 22.5989 34.2861 19.2852 34.2861C15.9714 34.2861 13.2852 31.5998 13.2852 28.2861C13.2852 24.9724 15.9714 22.2861 19.2852 22.2861C22.5989 22.2861 25.2852 24.9724 25.2852 28.2861Z" stroke="white" stroke-width="2.09627"/>
</svg>
