<svg width="40" height="40" viewBox="0 0 40 40" fill="none" xmlns="http://www.w3.org/2000/svg">
<g clip-path="url(#clip0_1558_9635)">
<path d="M15.5566 20.0021C15.5566 17.9069 15.5566 16.8594 16.2075 16.2085C16.2075 16.2085 16.2075 16.2085 16.2075 16.2085C16.8584 15.5576 17.906 15.5576 20.0011 15.5576C22.0962 15.5576 23.1438 15.5576 23.7947 16.2085C23.7947 16.2085 23.7947 16.2085 23.7947 16.2085C24.4455 16.8594 24.4455 17.9069 24.4455 20.0021C24.4455 22.0972 24.4455 23.1448 23.7947 23.7956C23.7947 23.7956 23.7947 23.7956 23.7947 23.7956C23.1438 24.4465 22.0962 24.4465 20.0011 24.4465C17.906 24.4465 16.8584 24.4465 16.2075 23.7956C16.2075 23.7956 16.2075 23.7956 16.2075 23.7956C15.5566 23.1448 15.5566 22.0972 15.5566 20.0021Z" stroke="white" stroke-width="2"/>
<path d="M34.444 8.89095C34.444 10.7319 32.9516 12.2243 31.1107 12.2243C29.2697 12.2243 27.7773 10.7319 27.7773 8.89095C27.7773 7.05 29.2697 5.55762 31.1107 5.55762C32.9516 5.55762 34.444 7.05 34.444 8.89095Z" stroke="white" stroke-width="2"/>
<path d="M34.444 31.1146C34.444 32.9555 32.9516 34.4479 31.1107 34.4479C29.2697 34.4479 27.7773 32.9555 27.7773 31.1146C27.7773 29.2736 29.2697 27.7813 31.1107 27.7813C32.9516 27.7813 34.444 29.2736 34.444 31.1146Z" stroke="white" stroke-width="2"/>
<path d="M12.2233 31.1146C12.2233 32.9555 10.7309 34.4479 8.88998 34.4479C7.04903 34.4479 5.55664 32.9555 5.55664 31.1146C5.55664 29.2736 7.04903 27.7813 8.88998 27.7813C10.7309 27.7813 12.2233 29.2736 12.2233 31.1146Z" stroke="white" stroke-width="2"/>
<path d="M12.2233 8.89095C12.2233 10.7319 10.7309 12.2243 8.88998 12.2243C7.04903 12.2243 5.55664 10.7319 5.55664 8.89095C5.55664 7.05 7.04903 5.55762 8.88998 5.55762C10.7309 5.55762 12.2233 7.05 12.2233 8.89095Z" stroke="white" stroke-width="2"/>
<path d="M11.1123 11.1113L15.5568 15.5558M11.1123 28.8891L15.5568 24.4447M28.8901 28.8891L24.4456 24.4447M24.4456 15.5558L28.8901 11.1113" stroke="white" stroke-width="2"/>
</g>
<defs>
<clipPath id="clip0_1558_9635">
<rect width="40" height="40" fill="white"/>
</clipPath>
</defs>
</svg>
