<svg viewBox="0 0 29.5547 29.5557" xmlns="http://www.w3.org/2000/svg" xmlns:xlink="http://www.w3.org/1999/xlink" width="29.554688" height="29.555664" fill="none">
	<rect id="scale-circle-18px" width="27.999998" height="27.999998" x="0.777344" y="0.777832" fill="rgb(52,52,52)" fill-opacity="0" />
	<rect id="scale-circle-18px" width="27.999998" height="27.999998" x="0.777344" y="0.777832" stroke="rgb(0,0,0)" stroke-opacity="0" stroke-width="1.555555" />
	<g id="Group 84">
		<path id="Ellipse 81" d="M14.7756 25.6679C8.76184 25.6679 3.88672 20.7928 3.88672 14.779C3.88672 8.76526 8.76184 3.89014 14.7756 3.89014C20.7894 3.89014 25.6645 8.76526 25.6645 14.779C25.6645 20.7928 20.7894 25.6679 14.7756 25.6679Z" fill-rule="nonzero" stroke="rgb(255,255,255)" stroke-width="1.521739" />
		<path id="Ellipse 81" d="M14.7785 25.6678C10.5688 25.6678 7.15625 22.2552 7.15625 18.0456C7.15625 13.8359 10.5688 10.4233 14.7785 10.4233C18.9881 10.4233 22.4007 13.8359 22.4007 18.0456C22.4007 22.2552 18.9881 25.6678 14.7785 25.6678Z" fill-rule="nonzero" stroke="rgb(255,255,255)" stroke-width="1.521739" />
		<path id="Ellipse 81" d="M14.7774 25.6677C12.3719 25.6677 10.4219 23.7176 10.4219 21.3121C10.4219 18.9066 12.3719 16.9565 14.7774 16.9565C17.1829 16.9565 19.133 18.9066 19.133 21.3121C19.133 23.7176 17.1829 25.6677 14.7774 25.6677Z" fill-rule="nonzero" stroke="rgb(255,255,255)" stroke-width="1.521739" />
	</g>
</svg>
