<svg viewBox="0 0 29.5547 29.5557" xmlns="http://www.w3.org/2000/svg" xmlns:xlink="http://www.w3.org/1999/xlink" width="29.554688" height="29.555664" opacity="0.469999999" fill="none">
	<defs>
		<clipPath id="clipPath_2">
			<rect width="31.000000" height="31.000000" x="0.277344" y="0.277832" fill="rgb(255,255,255)" />
		</clipPath>
	</defs>
	<rect id="rectangle-small-with-blocks-18px" width="27.999998" height="27.999998" x="0.777344" y="0.777832" fill="rgb(52,52,52)" fill-opacity="0" />
	<rect id="rectangle-small-with-blocks-18px" width="27.999998" height="27.999998" x="0.777344" y="0.777832" stroke="rgb(0,0,0)" stroke-opacity="0" stroke-width="1.555555" />
	<g id="Icon Frame" customFrame="url(#clipPath_2)">
		<rect id="Icon Frame" width="31.000000" height="31.000000" x="0.277344" y="0.277832" fill="rgb(255,255,255)" fill-opacity="0" />
		<g id="Group 46" opacity="0">
			<line id="Line 3" x1="0" x2="0" y1="0" y2="0" stroke="rgb(155,81,224)" stroke-width="1.550000" transform="matrix(0.707107,0.707107,-0.707107,0.707107,0.777344,0.777832)" />
			<line id="Line 4" x1="0" x2="0" y1="0" y2="0" stroke="rgb(155,81,224)" stroke-width="1.550000" transform="matrix(-0.707107,0.707107,0.707107,0.707107,31.7773,0.777832)" />
			<circle id="Ellipse 2" cx="16.2782116" cy="16.2777233" r="12.0555553" stroke="rgb(155,81,224)" stroke-width="1.550000" />
			<rect id="Rectangle 4" width="20.666666" height="20.666666" x="5.945312" y="5.944336" stroke="rgb(155,81,224)" stroke-width="1.550000" />
			<rect id="Rectangle 5" width="24.111111" height="17.222221" x="4.222656" y="7.666504" stroke="rgb(155,81,224)" stroke-width="1.550000" />
			<rect id="Rectangle 6" width="24.111111" height="17.222221" x="0.000000" y="0.000000" stroke="rgb(155,81,224)" stroke-width="1.550000" transform="matrix(-4.37114e-08,1,-1,-4.37114e-08,24.8867,4.22217)" />
		</g>
	</g>
	<g id="Group 920">
		<path id="Rectangle 939" d="M14.8102 11.6685C16.2465 11.6685 16.9647 11.6685 17.4172 12.1069C17.4289 12.1183 17.4404 12.1298 17.4517 12.1415C17.8902 12.594 17.8902 13.3121 17.8902 14.7485L17.8902 14.8107C17.8902 16.247 17.8902 16.9652 17.4517 17.4177C17.4404 17.4294 17.4289 17.4409 17.4172 17.4522C16.9647 17.8907 16.2465 17.8907 14.8102 17.8907L14.748 17.8907C13.3116 17.8907 12.5935 17.8907 12.141 17.4522C12.1293 17.4409 12.1178 17.4294 12.1064 17.4177C11.668 16.9652 11.668 16.247 11.668 14.8107L11.668 14.7485C11.668 13.3121 11.668 12.5939 12.1064 12.1415C12.1178 12.1298 12.1293 12.1183 12.141 12.1069C12.5935 11.6685 13.3116 11.6685 14.748 11.6685L14.8102 11.6685Z" fill-rule="nonzero" stroke="rgb(255,255,255)" stroke-width="1.400000" />
		<path id="Ellipse 108" d="M22.556 9.33512C21.2673 9.33512 20.2227 8.29046 20.2227 7.00179C20.2227 5.71313 21.2673 4.66846 22.556 4.66846C23.8447 4.66846 24.8893 5.71313 24.8893 7.00179C24.8893 8.29046 23.8447 9.33512 22.556 9.33512Z" fill-rule="nonzero" stroke="rgb(255,255,255)" stroke-width="1.400000" />
		<path id="Ellipse 109" d="M22.556 24.8898C21.2673 24.8898 20.2227 23.8451 20.2227 22.5565C20.2227 21.2678 21.2673 20.2231 22.556 20.2231C23.8447 20.2231 24.8893 21.2678 24.8893 22.5565C24.8893 23.8451 23.8447 24.8898 22.556 24.8898Z" fill-rule="nonzero" stroke="rgb(255,255,255)" stroke-width="1.400000" />
		<path id="Ellipse 110" d="M7.0013 24.8898C5.71264 24.8898 4.66797 23.8451 4.66797 22.5565C4.66797 21.2678 5.71264 20.2231 7.0013 20.2231C8.28997 20.2231 9.33464 21.2678 9.33464 22.5565C9.33464 23.8451 8.28997 24.8898 7.0013 24.8898Z" fill-rule="nonzero" stroke="rgb(255,255,255)" stroke-width="1.400000" />
		<path id="Ellipse 111" d="M7.0013 9.33512C5.71264 9.33512 4.66797 8.29046 4.66797 7.00179C4.66797 5.71313 5.71264 4.66846 7.0013 4.66846C8.28997 4.66846 9.33464 5.71313 9.33464 7.00179C9.33464 8.29046 8.28997 9.33512 7.0013 9.33512Z" fill-rule="nonzero" stroke="rgb(255,255,255)" stroke-width="1.400000" />
		<path id="Vector 48" d="M8.55469 8.55518L11.6658 11.6663M8.55469 20.9996L11.6658 17.8885M20.9991 20.9996L17.888 17.8885M17.888 11.6663L20.9991 8.55518" stroke="rgb(255,255,255)" stroke-width="1.400000" />
	</g>
</svg>
