<svg width="12" height="15" viewBox="0 0 12 15" fill="none" xmlns="http://www.w3.org/2000/svg">
<path d="M1.17678 5.57853L3.33517 2.65826C4.73034 0.770607 5.42793 -0.17322 6.07877 0.0262303C6.72961 0.225681 6.72961 1.38328 6.72961 3.69849V3.91679C6.72961 4.75183 6.72961 5.16935 6.99643 5.43125L7.01055 5.44481C7.28312 5.70117 7.71768 5.70117 8.58678 5.70117C10.1508 5.70117 10.9328 5.70117 11.1971 6.1755C11.2015 6.18336 11.2057 6.19127 11.2098 6.19925C11.4593 6.68093 11.0065 7.29353 10.101 8.51873L7.94259 11.439C6.54739 13.3266 5.84978 14.2704 5.19894 14.071C4.5481 13.8715 4.54812 12.7139 4.54815 10.3987L4.54815 10.1805C4.54817 9.34543 4.54817 8.9279 4.28136 8.666L4.26724 8.65244C3.99466 8.39607 3.5601 8.39607 2.69099 8.39607C1.12699 8.39607 0.344992 8.39607 0.0807042 7.92174C0.0763285 7.91389 0.0720745 7.90597 0.0679438 7.898C-0.181543 7.41633 0.271233 6.80373 1.17678 5.57853Z" fill="#97CD06"/>
</svg>
