<svg width="28" height="28" viewBox="0 0 28 28" fill="none" xmlns="http://www.w3.org/2000/svg">
<g opacity="0.47" clip-path="url(#clip0_1_5079)">
<path d="M10.8906 14.0008C10.8906 12.5342 10.8906 11.8009 11.3462 11.3453C11.8018 10.8896 12.5351 10.8896 14.0017 10.8896C15.4683 10.8896 16.2016 10.8896 16.6572 11.3453C17.1128 11.8009 17.1128 12.5342 17.1128 14.0008C17.1128 15.4674 17.1128 16.2006 16.6572 16.6563C16.2016 17.1119 15.4683 17.1119 14.0017 17.1119C12.5351 17.1119 11.8018 17.1119 11.3462 16.6563C10.8906 16.2006 10.8906 15.4674 10.8906 14.0008Z" stroke="white" stroke-width="1.4"/>
<path d="M24.112 6.22298C24.112 7.51165 23.0673 8.55632 21.7786 8.55632C20.49 8.55632 19.4453 7.51165 19.4453 6.22298C19.4453 4.93432 20.49 3.88965 21.7786 3.88965C23.0673 3.88965 24.112 4.93432 24.112 6.22298Z" stroke="white" stroke-width="1.4"/>
<path d="M24.112 21.7791C24.112 23.0678 23.0673 24.1125 21.7786 24.1125C20.49 24.1125 19.4453 23.0678 19.4453 21.7791C19.4453 20.4905 20.49 19.4458 21.7786 19.4458C23.0673 19.4458 24.112 20.4905 24.112 21.7791Z" stroke="white" stroke-width="1.4"/>
<path d="M8.55729 21.7791C8.55729 23.0678 7.51262 24.1125 6.22396 24.1125C4.93529 24.1125 3.89063 23.0678 3.89063 21.7791C3.89063 20.4905 4.93529 19.4458 6.22396 19.4458C7.51262 19.4458 8.55729 20.4905 8.55729 21.7791Z" stroke="white" stroke-width="1.4"/>
<path d="M8.55729 6.22298C8.55729 7.51165 7.51262 8.55632 6.22396 8.55632C4.93529 8.55632 3.89063 7.51165 3.89063 6.22298C3.89063 4.93432 4.93529 3.88965 6.22396 3.88965C7.51262 3.88965 8.55729 4.93432 8.55729 6.22298Z" stroke="white" stroke-width="1.4"/>
<path d="M7.7793 7.77734L10.8904 10.8885M7.7793 20.2218L10.8904 17.1107M20.2237 20.2218L17.1126 17.1107M17.1126 10.8885L20.2237 7.77734" stroke="white" stroke-width="1.4"/>
</g>
<defs>
<clipPath id="clip0_1_5079">
<rect width="28" height="28" fill="white"/>
</clipPath>
</defs>
</svg>
