<svg viewBox="0 0 21.9297 22.9297" xmlns="http://www.w3.org/2000/svg" xmlns:xlink="http://www.w3.org/1999/xlink" width="21.929688" height="22.929688" fill="none" customFrame="#000000">
	<defs>
		<clipPath id="clipPath_0">
			<rect width="34.736839" height="34.736839" x="0.964844" y="0.964844" fill="rgb(255,255,255)" />
		</clipPath>
	</defs>
	<rect id="loader-18px" width="20.000000" height="21.000000" x="0.964844" y="0.964844" stroke="rgb(0,0,0)" stroke-opacity="0" stroke-width="1.929824" />
	<g id="Icon Frame" opacity="0" customFrame="url(#clipPath_0)">
		<rect id="Icon Frame" width="34.736839" height="34.736839" x="0.964844" y="0.964844" opacity="0" fill="rgb(255,255,255)" fill-opacity="0" />
		<g id="Group 46">
			<line id="Line 3" x1="0" x2="25.4558449" y1="0" y2="0" stroke="rgb(155,81,224)" stroke-width="0.100000" transform="matrix(0.707107,0.707107,-0.707107,0.707107,1,0.929688)" />
			<line id="Line 4" x1="0" x2="25.455843" y1="0" y2="0" stroke="rgb(155,81,224)" stroke-width="0.100000" transform="matrix(-0.707107,0.707107,0.707107,0.707107,18.9297,0.929688)" />
			<circle id="Ellipse 2" cx="9.96484375" cy="9.96484375" r="7" stroke="rgb(155,81,224)" stroke-width="0.100000" />
			<rect id="Rectangle 4" width="12.000000" height="12.000000" x="3.964844" y="3.964844" stroke="rgb(155,81,224)" stroke-width="0.100000" />
			<rect id="Rectangle 5" width="14.000000" height="10.000000" x="2.964844" y="4.964844" stroke="rgb(155,81,224)" stroke-width="0.100000" />
			<rect id="Rectangle 6" width="14.000000" height="9.999999" x="0.000000" y="0.000000" stroke="rgb(155,81,224)" stroke-width="0.100000" transform="matrix(-3.5781e-08,1,-1,-3.5781e-08,14.9648,2.96484)" />
		</g>
	</g>
	<path id="Vector 72" d="M11.1055 4.07595L11.1055 1.96484M11.1055 20.9648L11.1055 18.8537M3.71658 11.4648L1.60547 11.4648M20.6055 11.4648L18.4944 11.4648M17.9666 4.60373L16.3832 6.18707M5.82769 16.7426L4.24436 18.326M16.3832 16.7426L17.9666 18.326M5.82769 6.18707L4.24436 4.60373" stroke="rgb(255,255,255)" stroke-linecap="round" stroke-width="2.431579" />
</svg>
