<svg viewBox="0 0 29 29" xmlns="http://www.w3.org/2000/svg" xmlns:xlink="http://www.w3.org/1999/xlink" width="29.000000" height="29.000000" fill="none">
	<rect id="Outline / Astronomy / Stars Minimalistic" width="29.000000" height="29.000000" x="0.000000" y="0.000000" />
	<path id="Vector" d="M6.62214 2.29959C6.56593 2.01596 6.31656 1.81153 6.02738 1.8125C5.73814 1.81348 5.49017 2.01932 5.43596 2.30342L5.43556 2.3055L5.43325 2.31708C5.43106 2.32791 5.42758 2.34484 5.42278 2.36719C5.41318 2.41193 5.39837 2.47819 5.3782 2.56068C5.33772 2.72626 5.27643 2.95411 5.19353 3.20287C5.01869 3.72752 4.78049 4.24217 4.50709 4.51742C4.23369 4.79267 3.72066 5.03435 3.1972 5.21273C2.94901 5.2973 2.72158 5.36013 2.55628 5.40173C2.47393 5.42246 2.40777 5.43772 2.36309 5.44762C2.34077 5.45257 2.32387 5.45617 2.31305 5.45843L2.30149 5.46081L2.29959 5.4612C2.01586 5.51733 1.81153 5.76671 1.8125 6.05595C1.81348 6.3452 2.01932 6.59316 2.30342 6.64737L2.3055 6.64778L2.31708 6.65008C2.32791 6.65227 2.34484 6.65576 2.36719 6.66055C2.41193 6.67015 2.47819 6.68497 2.56068 6.70513C2.72626 6.74562 2.95411 6.80691 3.20287 6.88981C3.72752 7.06464 4.24217 7.30285 4.51742 7.57624C4.79267 7.84964 5.03435 8.36267 5.21273 8.88613C5.2973 9.13433 5.36013 9.36175 5.40173 9.52706C5.42246 9.60941 5.43772 9.67556 5.44762 9.72024C5.45257 9.74256 5.45617 9.75946 5.45843 9.77028L5.46081 9.78184L5.4612 9.78374C5.51733 10.0675 5.76671 10.2718 6.05595 10.2708C6.3452 10.2699 6.59316 10.064 6.64737 9.77991L6.64778 9.77783L6.65008 9.76625C6.65227 9.75542 6.65576 9.7385 6.66055 9.71614C6.67015 9.6714 6.68497 9.60514 6.70513 9.52265C6.74562 9.35707 6.80691 9.12923 6.88981 8.88047C7.06464 8.35581 7.30285 7.84116 7.57624 7.56591C7.84964 7.29066 8.36267 7.04898 8.88613 6.87061C9.13433 6.78603 9.36175 6.7232 9.52706 6.6816C9.60941 6.66088 9.67556 6.64562 9.72024 6.63571C9.74256 6.63077 9.75946 6.62717 9.77028 6.62491L9.78184 6.62252L9.78374 6.62214C10.0673 6.56591 10.2718 6.31654 10.2708 6.02738C10.2699 5.73814 10.064 5.49017 9.77991 5.43596L9.77783 5.43556L9.76625 5.43325C9.75542 5.43106 9.7385 5.42758 9.71614 5.42278C9.6714 5.41318 9.60514 5.39837 9.52265 5.3782C9.35707 5.33772 9.12923 5.27643 8.88047 5.19353C8.35581 5.01869 7.84116 4.78049 7.56591 4.50709C7.29066 4.23369 7.04898 3.72066 6.87061 3.1972C6.78603 2.94901 6.7232 2.72159 6.6816 2.55628C6.66088 2.47393 6.64562 2.40777 6.63571 2.36309C6.63077 2.34077 6.62717 2.32387 6.62491 2.31305L6.62252 2.30149L6.62214 2.29959ZM23.8646 4.83333C23.8646 4.33283 23.4588 3.92708 22.9583 3.92708C22.4578 3.92708 22.0521 4.33283 22.0521 4.83333L22.0521 5.13542L21.75 5.13542C21.2495 5.13542 20.8438 5.54116 20.8438 6.04167C20.8438 6.54218 21.2495 6.94792 21.75 6.94792L22.0521 6.94792L22.0521 7.25C22.0521 7.75051 22.4578 8.15625 22.9583 8.15625C23.4588 8.15625 23.8646 7.75051 23.8646 7.25L23.8646 6.94792L24.1667 6.94792C24.6672 6.94792 25.0729 6.54218 25.0729 6.04167C25.0729 5.54116 24.6672 5.13542 24.1667 5.13542L23.8646 5.13542L23.8646 4.83333ZM7.72867 6.03597C7.36279 5.86408 6.99526 5.64338 6.71438 5.36439C6.4335 5.0854 6.21032 4.71937 6.03597 4.35467C5.86408 4.72054 5.64338 5.08807 5.36439 5.36895C5.0854 5.64983 4.71937 5.87301 4.35467 6.04737C4.72054 6.21925 5.08807 6.43995 5.36895 6.71894C5.64983 6.99793 5.87301 7.36396 6.04737 7.72867C6.21925 7.36279 6.43995 6.99526 6.71894 6.71438C6.99793 6.4335 7.36396 6.21032 7.72867 6.03597ZM15.1042 5.13542C14.1833 5.13542 13.543 5.71666 13.0459 6.36584C12.5587 7.002 12.0445 7.92449 11.4251 9.03569L11.0521 9.70488C10.643 10.4387 10.5543 10.561 10.453 10.6379C10.3573 10.7105 10.2317 10.7582 9.43587 10.9382L8.70728 11.1031C7.50811 11.3744 6.50466 11.6013 5.77036 11.8907C5.00371 12.1929 4.29848 12.6515 4.02694 13.5247C3.75847 14.388 4.06525 15.1737 4.50826 15.8774C4.93679 16.5582 5.61818 17.3549 6.43846 18.314L6.932 18.8912C7.47035 19.5207 7.55767 19.649 7.59959 19.7838C7.6427 19.9224 7.64335 20.0875 7.56203 20.9266L7.48766 21.6941C7.36339 22.9761 7.26063 24.0362 7.29676 24.8471C7.33363 25.6748 7.52256 26.5105 8.24493 27.0589C8.9821 27.6185 9.83369 27.5472 10.618 27.3224C11.3748 27.1056 12.3137 26.6732 13.4362 26.1563L14.1187 25.8421C14.8669 25.4976 14.9931 25.4609 15.1042 25.4609C15.2152 25.4609 15.3415 25.4976 16.0896 25.8421L16.7721 26.1563C17.8946 26.6732 18.8335 27.1056 19.5904 27.3224C20.3746 27.5472 21.2262 27.6185 21.9634 27.0589C22.6858 26.5105 22.8747 25.6748 22.9116 24.8471C22.9477 24.0362 22.8449 22.9761 22.7207 21.6942L22.7207 21.6941L22.6463 20.9266C22.565 20.0875 22.5656 19.9224 22.6087 19.7838C22.6507 19.649 22.738 19.5207 23.2763 18.8912L23.7699 18.3141C24.5901 17.3549 25.2715 16.5582 25.7001 15.8774C26.1431 15.1737 26.4499 14.388 26.1814 13.5247C25.9099 12.6515 25.2046 12.1929 24.438 11.8907C23.7037 11.6013 22.7002 11.3744 21.501 11.1031L20.7725 10.9382C19.9767 10.7582 19.851 10.7105 19.7554 10.6379C19.654 10.561 19.5653 10.4387 19.1562 9.70488L18.7832 9.03569C18.1638 7.92449 17.6496 7.002 17.1625 6.36584C16.6653 5.71666 16.025 5.13542 15.1042 5.13542ZM12.9718 9.98361C13.637 8.79023 14.088 7.98613 14.4849 7.46783C14.8813 6.95012 15.0525 6.94792 15.1042 6.94792C15.1558 6.94792 15.327 6.95012 15.7235 7.46783C16.1204 7.98613 16.5713 8.79023 17.2365 9.98361L17.5731 10.5874C17.5948 10.6263 17.6163 10.6651 17.6377 10.7035C17.9412 11.2503 18.2156 11.7446 18.6595 12.0815C19.1087 12.4225 19.6551 12.5451 20.247 12.6778C20.2886 12.6871 20.3304 12.6965 20.3725 12.706L21.0261 12.8539C22.32 13.1467 23.1847 13.345 23.7734 13.577C24.3451 13.8023 24.4217 13.9697 24.4507 14.0629C24.4827 14.166 24.5092 14.367 24.1662 14.9118C23.817 15.4665 23.225 16.1624 22.3444 17.1922L21.8988 17.7132C21.871 17.7457 21.8433 17.778 21.8159 17.81C21.4085 18.2849 21.045 18.7085 20.878 19.2455C20.7121 19.779 20.7672 20.338 20.8296 20.9721C20.8338 21.0149 20.838 21.058 20.8423 21.1014L20.9096 21.7966C21.0426 23.1692 21.1306 24.0998 21.1009 24.7665C21.0712 25.4317 20.9319 25.5663 20.8675 25.6152C20.8179 25.6529 20.6847 25.7506 20.0896 25.5801C19.4829 25.4062 18.6712 25.0354 17.4596 24.4775L16.8477 24.1957C16.8075 24.1772 16.7676 24.1587 16.7278 24.1403C16.1777 23.8857 15.6651 23.6484 15.1042 23.6484C14.5433 23.6484 14.0307 23.8857 13.4806 24.1403C13.4408 24.1587 13.4008 24.1772 13.3607 24.1957L12.7487 24.4775C11.5371 25.0354 10.7255 25.4062 10.1187 25.5801C9.5236 25.7506 9.39046 25.6529 9.34085 25.6152C9.27645 25.5663 9.13709 25.4317 9.10746 24.7665C9.07776 24.0998 9.16571 23.1692 9.29872 21.7966L9.36608 21.1014C9.37029 21.058 9.37454 21.0149 9.37875 20.9721C9.44118 20.3379 9.49621 19.7789 9.33033 19.2455C9.16333 18.7085 8.79988 18.2849 8.39245 17.81C8.36499 17.778 8.33732 17.7457 8.3095 17.7132L7.86393 17.1922C6.98334 16.1624 6.39129 15.4665 6.04214 14.9118C5.69916 14.367 5.72563 14.166 5.75768 14.0629C5.78666 13.9697 5.86326 13.8023 6.4349 13.577C7.02361 13.345 7.88833 13.1467 9.18227 12.8539L9.83585 12.706C9.8779 12.6965 9.91975 12.6872 9.96137 12.6778C10.5532 12.5451 11.0997 12.4225 11.5489 12.0815C11.9927 11.7446 12.2671 11.2503 12.5707 10.7035C12.592 10.6651 12.6135 10.6263 12.6352 10.5874L12.9718 9.98361Z" fill="rgb(255,255,255)" fill-rule="evenodd" />
</svg>
