<svg width="29" height="29" viewBox="0 0 29 29" fill="none" xmlns="http://www.w3.org/2000/svg">
<g clip-path="url(#clip0_1_6353)">
<path d="M10.3828 14.5537C10.3828 12.5875 10.3828 11.6044 10.9936 10.9936C11.6044 10.3828 12.5875 10.3828 14.5537 10.3828C16.5198 10.3828 17.5029 10.3828 18.1137 10.9936C18.7245 11.6044 18.7245 12.5875 18.7245 14.5537C18.7245 16.5198 18.7245 17.5029 18.1137 18.1137C17.5029 18.7245 16.5198 18.7245 14.5537 18.7245C12.5875 18.7245 11.6044 18.7245 10.9936 18.1137C10.3828 17.5029 10.3828 16.5198 10.3828 14.5537Z" stroke="white" stroke-width="1.87688"/>
<path d="M28.1078 4.12814C28.1078 5.85576 26.7073 7.25628 24.9797 7.25628C23.2521 7.25628 21.8516 5.85576 21.8516 4.12814C21.8516 2.40052 23.2521 1 24.9797 1C26.7073 1 28.1078 2.40052 28.1078 4.12814Z" stroke="white" stroke-width="1.87688"/>
<path d="M28.1078 24.9797C28.1078 26.7073 26.7073 28.1078 24.9797 28.1078C23.2521 28.1078 21.8516 26.7073 21.8516 24.9797C21.8516 23.2521 23.2521 21.8516 24.9797 21.8516C26.7073 21.8516 28.1078 23.2521 28.1078 24.9797Z" stroke="white" stroke-width="1.87688"/>
<path d="M7.25628 24.9797C7.25628 26.7073 5.85576 28.1078 4.12814 28.1078C2.40052 28.1078 1 26.7073 1 24.9797C1 23.2521 2.40052 21.8516 4.12814 21.8516C5.85576 21.8516 7.25628 23.2521 7.25628 24.9797Z" stroke="white" stroke-width="1.87688"/>
<path d="M7.25628 4.12814C7.25628 5.85576 5.85576 7.25628 4.12814 7.25628C2.40052 7.25628 1 5.85576 1 4.12814C1 2.40052 2.40052 1 4.12814 1C5.85576 1 7.25628 2.40052 7.25628 4.12814Z" stroke="white" stroke-width="1.87688"/>
<path d="M6.21094 6.21094L10.3818 10.3818M6.21094 22.8943L10.3818 18.7235M22.8943 22.8943L18.7235 18.7235M18.7235 10.3818L22.8943 6.21094" stroke="white" stroke-width="1.87688"/>
</g>
<defs>
<clipPath id="clip0_1_6353">
<rect width="29" height="29" fill="white"/>
</clipPath>
</defs>
</svg>
