<svg viewBox="0 0 29 29" xmlns="http://www.w3.org/2000/svg" xmlns:xlink="http://www.w3.org/1999/xlink" width="29.000000" height="29.000000" fill="none">
	<rect id="Frame 920" width="29.000000" height="29.000000" x="0.000000" y="0.000000" />
	<g id="Group 2072750778">
		<path id="Rectangle 939" d="M14.5954 10.3828C16.521 10.3828 17.4838 10.3828 18.0904 10.9706C18.106 10.9858 18.1215 11.0013 18.1367 11.017C18.7245 11.6236 18.7245 12.5864 18.7245 14.512L18.7245 14.5954C18.7245 16.521 18.7245 17.4838 18.1367 18.0904C18.1215 18.106 18.106 18.1215 18.0904 18.1367C17.4838 18.7245 16.521 18.7245 14.5954 18.7245L14.512 18.7245C12.5864 18.7245 11.6236 18.7245 11.017 18.1367C11.0013 18.1215 10.9858 18.106 10.9706 18.0904C10.3828 17.4838 10.3828 16.521 10.3828 14.5954L10.3828 14.512C10.3828 12.5864 10.3828 11.6236 10.9706 11.017C10.9858 11.0013 11.0013 10.9858 11.017 10.9706C11.6236 10.3828 12.5864 10.3828 14.512 10.3828L14.5954 10.3828Z" fill-rule="nonzero" stroke="rgb(255,255,255)" stroke-width="1.876884" />
		<path id="Ellipse 108" d="M24.9797 7.25628C23.2521 7.25628 21.8516 5.85576 21.8516 4.12814C21.8516 2.40052 23.2521 1 24.9797 1C26.7073 1 28.1078 2.40052 28.1078 4.12814C28.1078 5.85576 26.7073 7.25628 24.9797 7.25628Z" fill-rule="nonzero" stroke="rgb(255,255,255)" stroke-width="1.876884" />
		<path id="Ellipse 109" d="M24.9797 28.1078C23.2521 28.1078 21.8516 26.7073 21.8516 24.9797C21.8516 23.2521 23.2521 21.8516 24.9797 21.8516C26.7073 21.8516 28.1078 23.2521 28.1078 24.9797C28.1078 26.7073 26.7073 28.1078 24.9797 28.1078Z" fill-rule="nonzero" stroke="rgb(255,255,255)" stroke-width="1.876884" />
		<path id="Ellipse 110" d="M4.12814 28.1078C2.40052 28.1078 1 26.7073 1 24.9797C1 23.2521 2.40052 21.8516 4.12814 21.8516C5.85576 21.8516 7.25628 23.2521 7.25628 24.9797C7.25628 26.7073 5.85576 28.1078 4.12814 28.1078Z" fill-rule="nonzero" stroke="rgb(255,255,255)" stroke-width="1.876884" />
		<path id="Ellipse 111" d="M4.12814 7.25628C2.40052 7.25628 1 5.85576 1 4.12814C1 2.40052 2.40052 1 4.12814 1C5.85576 1 7.25628 2.40052 7.25628 4.12814C7.25628 5.85576 5.85576 7.25628 4.12814 7.25628Z" fill-rule="nonzero" stroke="rgb(255,255,255)" stroke-width="1.876884" />
		<path id="Vector 48" d="M6.21094 6.21094L10.3818 10.3818M6.21094 22.8943L10.3818 18.7235M22.8943 22.8943L18.7235 18.7235M18.7235 10.3818L22.8943 6.21094" stroke="rgb(255,255,255)" stroke-width="1.876884" />
	</g>
</svg>
