<svg viewBox="0 0 29 29" xmlns="http://www.w3.org/2000/svg" xmlns:xlink="http://www.w3.org/1999/xlink" width="29.000000" height="29.000000" fill="none" customFrame="#000000">
	<path id="Vector" d="M28.2223 0.101918C26.5953 -0.158632 24.7754 0.0824977 22.9602 0.801028C21.1291 1.52603 19.3666 2.71549 17.8642 4.23833C16.3809 5.74659 15.2181 7.51054 14.5019 9.34567C13.7857 7.5105 12.6229 5.74655 11.138 4.23999C9.63546 2.71554 7.87296 1.52769 6.04206 0.802685C4.22692 0.0841444 2.40701 -0.156971 0.779948 0.103575C0.430637 0.160216 0.15631 0.438563 0.100451 0.792991C-0.15635 2.44368 0.0813105 4.29016 0.789503 6.13192C1.50408 7.98975 2.67642 9.77798 4.17735 11.3022C5.67987 12.8267 7.44238 14.0145 9.27328 14.7395C10.6147 15.2703 11.9577 15.5406 13.2226 15.5406C13.4076 15.5406 13.5926 15.5341 13.7745 15.5228L13.7777 29L15.4106 29L15.4106 15.5307C15.5318 15.5355 15.6546 15.5388 15.7774 15.5388C17.0439 15.5388 18.3869 15.2685 19.7267 14.7377C21.5578 14.0127 23.3203 12.8232 24.8226 11.3004C26.3252 9.77594 27.4959 7.98771 28.2105 6.13008C28.9187 4.28845 29.1563 2.44197 28.8995 0.791152C28.8469 0.436742 28.5726 0.15841 28.2216 0.101736L28.2223 0.101918ZM5.33349 10.1272C7.8251 12.655 10.9624 14.05 13.6707 13.8687C13.8494 11.1207 12.4745 7.93925 9.98462 5.41143C7.49301 2.88365 4.35575 1.49028 1.6474 1.66991C1.46876 4.41788 2.84204 7.60098 5.33349 10.1272ZM15.3326 13.8703C18.0427 14.05 21.1784 12.6566 23.6698 10.1288C26.1612 7.60082 27.5346 4.41776 27.3575 1.66987C24.6475 1.49024 21.5117 2.88357 19.0203 5.41139C16.5289 7.93937 15.154 11.1224 15.3326 13.8703Z" fill="rgb(217,217,217)" fill-rule="evenodd" />
</svg>
