<svg width="8" height="10" viewBox="0 0 8 10" fill="none" xmlns="http://www.w3.org/2000/svg">
<path d="M7.15916 0.120598C4.7151 2.32917 0.971946 2.27001 0.729742 4.5969C0.685705 5.1096 0.839834 5.5237 1.19213 5.95753C2.62334 4.69549 4.1206 3.96587 4.69308 3.72924C4.80317 3.67008 4.93528 3.72924 4.97932 3.84756C5.00134 3.92644 4.9573 4.00531 4.89125 4.04475C2.9316 5.08988 1.32424 6.70687 0.0691854 9.09291C-0.151 9.50702 0.179278 9.98028 0.707723 10C0.993964 10 1.25819 9.86197 1.36828 9.62533C1.76461 8.83656 2.40315 7.61396 2.75545 7.18013C3.90041 7.73227 5.11143 7.67312 6.10227 7.08153C7.77568 6.07585 8.10595 2.50664 7.97384 0.416389C7.95182 0.0417209 7.4454 -0.135753 7.15916 0.120598Z" fill="#97CD06"/>
</svg>
