<svg width="44" height="44" viewBox="0 0 44 44" fill="none" xmlns="http://www.w3.org/2000/svg">
<g opacity="0.47" clip-path="url(#clip0_1558_9904)">
<path d="M17.1133 22.0022C17.1133 19.6975 17.1133 18.5452 17.8292 17.8292C17.8292 17.8292 17.8292 17.8292 17.8292 17.8292C18.5452 17.1133 19.6975 17.1133 22.0022 17.1133C24.3068 17.1133 25.4591 17.1133 26.1751 17.8292C26.1751 17.8292 26.1751 17.8292 26.1751 17.8292C26.8911 18.5452 26.8911 19.6975 26.8911 22.0022C26.8911 24.3068 26.8911 25.4591 26.1751 26.1751C26.1751 26.1751 26.1751 26.1751 26.1751 26.1751C25.4591 26.8911 24.3068 26.8911 22.0022 26.8911C19.6975 26.8911 18.5452 26.8911 17.8292 26.1751C17.8292 26.1751 17.8292 26.1751 17.8292 26.1751C17.1133 25.4591 17.1133 24.3068 17.1133 22.0022Z" stroke="white" stroke-width="2.2"/>
<path d="M37.89 9.77995C37.89 11.805 36.2484 13.4466 34.2233 13.4466C32.1983 13.4466 30.5566 11.805 30.5566 9.77995C30.5566 7.7549 32.1983 6.11328 34.2233 6.11328C36.2484 6.11328 37.89 7.7549 37.89 9.77995Z" stroke="white" stroke-width="2.2"/>
<path d="M37.89 34.2253C37.89 36.2503 36.2484 37.8919 34.2233 37.8919C32.1983 37.8919 30.5566 36.2503 30.5566 34.2253C30.5566 32.2002 32.1983 30.5586 34.2233 30.5586C36.2484 30.5586 37.89 32.2002 37.89 34.2253Z" stroke="white" stroke-width="2.2"/>
<path d="M13.4466 34.2253C13.4466 36.2503 11.805 37.8919 9.77995 37.8919C7.7549 37.8919 6.11328 36.2503 6.11328 34.2253C6.11328 32.2002 7.7549 30.5586 9.77995 30.5586C11.805 30.5586 13.4466 32.2002 13.4466 34.2253Z" stroke="white" stroke-width="2.2"/>
<path d="M13.4466 9.77995C13.4466 11.805 11.805 13.4466 9.77995 13.4466C7.7549 13.4466 6.11328 11.805 6.11328 9.77995C6.11328 7.7549 7.7549 6.11328 9.77995 6.11328C11.805 6.11328 13.4466 7.7549 13.4466 9.77995Z" stroke="white" stroke-width="2.2"/>
<path d="M12.2227 12.2227L17.1115 17.1115M12.2227 31.7782L17.1115 26.8893M31.7782 31.7782L26.8893 26.8893M26.8893 17.1115L31.7782 12.2227" stroke="white" stroke-width="2.2"/>
</g>
<defs>
<clipPath id="clip0_1558_9904">
<rect width="44" height="44" fill="white"/>
</clipPath>
</defs>
</svg>
