<svg width="18" height="10" viewBox="0 0 18 10" fill="none" xmlns="http://www.w3.org/2000/svg">
<path fill-rule="evenodd" clip-rule="evenodd" d="M0.173026 0.174786C0.404413 -0.057573 0.780354 -0.058361 1.01271 0.173026L4.11499 3.26233C4.52174 3.66737 4.78545 3.92821 5.00507 4.09513C5.21097 4.25163 5.30727 4.26914 5.37106 4.26917C5.43484 4.26919 5.53116 4.25175 5.73717 4.0954C5.95691 3.92864 6.22081 3.66799 6.62785 3.26325L6.84497 3.04736C7.21613 2.67824 7.53605 2.36009 7.82661 2.13956C8.13807 1.90317 8.48414 1.72432 8.91022 1.72427C9.3363 1.72422 9.68242 1.90299 9.99393 2.13931C10.2845 2.35977 10.6045 2.67786 10.9758 3.0469L15.8333 7.87482V4.91163C15.8333 4.58371 16.0992 4.31788 16.4271 4.31788C16.755 4.31788 17.0208 4.58371 17.0208 4.91163V9.30208C17.0208 9.63 16.755 9.89583 16.4271 9.89583H12.0079C11.68 9.89583 11.4141 9.63 11.4141 9.30208C11.4141 8.97416 11.68 8.70833 12.0079 8.70833H14.9874L10.1663 3.9166C9.75952 3.5123 9.4958 3.25196 9.27622 3.08538C9.07037 2.92921 8.97411 2.91176 8.91036 2.91177C8.8466 2.91177 8.75035 2.92925 8.54453 3.08546C8.32499 3.25209 8.06134 3.51249 7.65465 3.91689L7.43752 4.1328C7.06602 4.50224 6.74583 4.82066 6.45505 5.04134C6.14336 5.27788 5.79701 5.45682 5.37062 5.45667C4.94424 5.45651 4.59802 5.27732 4.2865 5.04055C3.99587 4.81965 3.67592 4.501 3.30468 4.13128C3.29551 4.12214 3.2863 4.11297 3.27707 4.10377L0.174786 1.01447C-0.057573 0.783087 -0.058361 0.407146 0.173026 0.174786Z" fill="black"/>
</svg>
