<svg width="15" height="15" viewBox="0 0 15 15" fill="none" xmlns="http://www.w3.org/2000/svg">
<path d="M10.8099 2.24245L9.34974 0.78225C8.30674 -0.26075 6.59324 -0.26075 5.55024 0.78225L4.09004 2.24245C3.79949 2.533 3.79949 3.0098 4.09004 3.30035L6.92849 6.1388C7.21904 6.42935 7.68839 6.42935 7.97894 6.1388L10.8174 3.30035C11.1005 3.0098 11.1005 2.533 10.8099 2.24245Z" fill="white"/>
<path d="M2.24245 4.09004L0.78225 5.55024C-0.26075 6.59324 -0.26075 8.30674 0.78225 9.34974L2.24245 10.8099C2.533 11.1005 3.00235 11.1005 3.2929 10.8099L6.13135 7.97149C6.4219 7.68094 6.4219 7.21159 6.13135 6.92104L3.30035 4.09004C3.0098 3.79949 2.533 3.79949 2.24245 4.09004Z" fill="white"/>
<path d="M14.1178 5.55024L12.6576 4.09004C12.367 3.79949 11.8977 3.79949 11.6071 4.09004L8.76866 6.92849C8.47811 7.21904 8.47811 7.68839 8.76866 7.97894L11.6071 10.8174C11.8977 11.1079 12.367 11.1079 12.6576 10.8174L14.1178 9.35719C15.1608 8.30674 15.1608 6.59324 14.1178 5.55024Z" fill="white"/>
<path d="M4.09004 12.6575L5.55024 14.1177C6.59324 15.1607 8.30674 15.1607 9.34974 14.1177L10.8099 12.6575C11.1005 12.367 11.1005 11.8976 10.8099 11.6071L7.97149 8.76865C7.68094 8.4781 7.21159 8.4781 6.92104 8.76865L4.08259 11.6071C3.79949 11.8902 3.79949 12.367 4.09004 12.6575Z" fill="white"/>
</svg>
