<svg width="13" height="13" viewBox="0 0 13 13" fill="none" xmlns="http://www.w3.org/2000/svg">
<path d="M11.8496 0H0.94477C0.422397 0 0 0.4124 0 0.922276V11.8721C0 12.382 0.422397 12.7969 0.94477 12.7969H11.8496C12.372 12.7969 12.7969 12.382 12.7969 11.8746V0.922276C12.7969 0.4124 12.372 0 11.8496 0ZM3.79658 10.9048H1.89704V4.79633H3.79658V10.9048ZM2.84681 3.96404C2.23696 3.96404 1.74458 3.47166 1.74458 2.8643C1.74458 2.25695 2.23696 1.76457 2.84681 1.76457C3.45416 1.76457 3.94654 2.25695 3.94654 2.8643C3.94654 3.46916 3.45416 3.96404 2.84681 3.96404ZM10.9048 10.9048H9.00781V7.93557C9.00781 7.22824 8.99531 6.31596 8.02055 6.31596C7.03329 6.31596 6.88333 7.08828 6.88333 7.88558V10.9048H4.98879V4.79633H6.80834V5.63113H6.83334C7.08578 5.15125 7.70563 4.64387 8.6279 4.64387C10.5499 4.64387 10.9048 5.90856 10.9048 7.55316V10.9048Z" fill="white"/>
</svg>
