<svg width="13" height="13" viewBox="0 0 13 13" fill="none" xmlns="http://www.w3.org/2000/svg">
<g clip-path="url(#clip0_2_1902)">
<path d="M6.39844 1.15222C8.10803 1.15222 8.31048 1.15972 8.98282 1.18971C9.60766 1.2172 9.94508 1.32218 10.17 1.40966C10.4675 1.52463 10.6824 1.6646 10.9048 1.88704C11.1298 2.11199 11.2673 2.32443 11.3822 2.62186C11.4697 2.84681 11.5747 3.18673 11.6022 3.80907C11.6322 4.48391 11.6397 4.68636 11.6397 6.39345C11.6397 8.10303 11.6322 8.30548 11.6022 8.97782C11.5747 9.60267 11.4697 9.94008 11.3822 10.165C11.2673 10.4625 11.1273 10.6774 10.9048 10.8999C10.6799 11.1248 10.4675 11.2623 10.17 11.3772C9.94508 11.4647 9.60516 11.5697 8.98282 11.5972C8.30798 11.6272 8.10553 11.6347 6.39844 11.6347C4.68886 11.6347 4.48641 11.6272 3.81407 11.5972C3.18922 11.5697 2.85181 11.4647 2.62686 11.3772C2.32943 11.2623 2.11449 11.1223 1.89204 10.8999C1.66709 10.6749 1.52963 10.4625 1.41466 10.165C1.32718 9.94008 1.2222 9.60017 1.19471 8.97782C1.16472 8.30298 1.15722 8.10053 1.15722 6.39345C1.15722 4.68386 1.16472 4.48141 1.19471 3.80907C1.2222 3.18423 1.32718 2.84681 1.41466 2.62186C1.52963 2.32443 1.66959 2.10949 1.89204 1.88704C2.11699 1.6621 2.32943 1.52463 2.62686 1.40966C2.85181 1.32218 3.19172 1.2172 3.81407 1.18971C4.48641 1.15972 4.68886 1.15222 6.39844 1.15222ZM6.39844 0C4.66137 0 4.44392 0.00749818 3.76159 0.0374909C3.08175 0.0674836 2.61436 0.177457 2.20946 0.334919C1.78707 0.499878 1.42965 0.717326 1.07474 1.07474C0.717326 1.42965 0.499878 1.78707 0.334919 2.20696C0.177457 2.61436 0.0674836 3.07925 0.0374909 3.75909C0.00749818 4.44392 0 4.66137 0 6.39844C0 8.13552 0.00749818 8.35297 0.0374909 9.0353C0.0674836 9.71514 0.177457 10.1825 0.334919 10.5874C0.499878 11.0098 0.717326 11.3672 1.07474 11.7222C1.42965 12.0771 1.78707 12.297 2.20696 12.4595C2.61436 12.6169 3.07925 12.7269 3.75909 12.7569C4.44142 12.7869 4.65887 12.7944 6.39594 12.7944C8.13302 12.7944 8.35047 12.7869 9.0328 12.7569C9.71264 12.7269 10.18 12.6169 10.5849 12.4595C11.0048 12.297 11.3622 12.0771 11.7172 11.7222C12.0721 11.3672 12.292 11.0098 12.4545 10.5899C12.6119 10.1825 12.7219 9.71764 12.7519 9.0378C12.7819 8.35547 12.7894 8.13802 12.7894 6.40094C12.7894 4.66387 12.7819 4.44642 12.7519 3.76409C12.7219 3.08425 12.6119 2.61686 12.4545 2.21196C12.297 1.78707 12.0796 1.42965 11.7221 1.07474C11.3672 0.719825 11.0098 0.499878 10.5899 0.337418C10.1825 0.179956 9.71764 0.069983 9.0378 0.0399903C8.35297 0.00749818 8.13552 0 6.39844 0Z" fill="white"/>
<path d="M6.39852 3.11169C4.58396 3.11169 3.11182 4.58384 3.11182 6.3984C3.11182 8.21295 4.58396 9.6851 6.39852 9.6851C8.21308 9.6851 9.68522 8.21295 9.68522 6.3984C9.68522 4.58384 8.21308 3.11169 6.39852 3.11169ZM6.39852 8.53038C5.2213 8.53038 4.26654 7.57561 4.26654 6.3984C4.26654 5.22118 5.2213 4.26641 6.39852 4.26641C7.57573 4.26641 8.5305 5.22118 8.5305 6.3984C8.5305 7.57561 7.57573 8.53038 6.39852 8.53038Z" fill="white"/>
<path d="M10.5825 2.98179C10.5825 3.40669 10.2376 3.74911 9.81517 3.74911C9.39027 3.74911 9.04785 3.40419 9.04785 2.98179C9.04785 2.5569 9.39277 2.21448 9.81517 2.21448C10.2376 2.21448 10.5825 2.55939 10.5825 2.98179Z" fill="white"/>
</g>
<defs>
<clipPath id="clip0_2_1902">
<rect width="12.7969" height="12.7969" fill="white"/>
</clipPath>
</defs>
</svg>
