<svg width="44" height="44" viewBox="0 0 44 44" fill="none" xmlns="http://www.w3.org/2000/svg">
<g opacity="0.47" clip-path="url(#clip0_2_961)">
<path d="M17.1123 22.0012C17.1123 19.6966 17.1123 18.5442 17.8283 17.8283C17.8283 17.8283 17.8283 17.8283 17.8283 17.8283C18.5442 17.1123 19.6966 17.1123 22.0012 17.1123C24.3058 17.1123 25.4582 17.1123 26.1741 17.8283C26.1741 17.8283 26.1741 17.8283 26.1741 17.8283C26.8901 18.5442 26.8901 19.6966 26.8901 22.0012C26.8901 24.3058 26.8901 25.4582 26.1741 26.1741C26.1741 26.1741 26.1741 26.1741 26.1741 26.1741C25.4582 26.8901 24.3058 26.8901 22.0012 26.8901C19.6966 26.8901 18.5442 26.8901 17.8283 26.1741C17.8283 26.1741 17.8283 26.1741 17.8283 26.1741C17.1123 25.4582 17.1123 24.3058 17.1123 22.0012Z" stroke="white" stroke-width="2.2"/>
<path d="M37.8892 9.77897C37.8892 11.804 36.2476 13.4456 34.2226 13.4456C32.1975 13.4456 30.5559 11.804 30.5559 9.77897C30.5559 7.75393 32.1975 6.1123 34.2226 6.1123C36.2476 6.1123 37.8892 7.75393 37.8892 9.77897Z" stroke="white" stroke-width="2.2"/>
<path d="M37.8892 34.2223C37.8892 36.2474 36.2476 37.889 34.2226 37.889C32.1975 37.889 30.5559 36.2474 30.5559 34.2223C30.5559 32.1973 32.1975 30.5557 34.2226 30.5557C36.2476 30.5557 37.8892 32.1973 37.8892 34.2223Z" stroke="white" stroke-width="2.2"/>
<path d="M13.4456 34.2223C13.4456 36.2474 11.804 37.889 9.77897 37.889C7.75393 37.889 6.1123 36.2474 6.1123 34.2223C6.1123 32.1973 7.75393 30.5557 9.77897 30.5557C11.804 30.5557 13.4456 32.1973 13.4456 34.2223Z" stroke="white" stroke-width="2.2"/>
<path d="M13.4454 9.77848C13.4454 11.8035 11.8038 13.4452 9.77873 13.4452C7.75368 13.4452 6.11206 11.8035 6.11206 9.77848C6.11206 7.75344 7.75368 6.11182 9.77873 6.11182C11.8038 6.11182 13.4454 7.75344 13.4454 9.77848Z" stroke="white" stroke-width="2.2"/>
<path d="M12.2229 12.2227L17.1118 17.1115M12.2229 31.7782L17.1118 26.8893M31.7785 31.7782L26.8896 26.8893M26.8896 17.1115L31.7785 12.2227" stroke="white" stroke-width="2.2"/>
</g>
<defs>
<clipPath id="clip0_2_961">
<rect width="44" height="44" fill="white"/>
</clipPath>
</defs>
</svg>
