<svg width="95" height="38" viewBox="0 0 95 38" fill="none" xmlns="http://www.w3.org/2000/svg">
<g clip-path="url(#clip0_2_1597)">
<path d="M41.7643 9.26491C40.6464 8.69012 39.376 8.40234 37.9545 8.40234H29.7383C29.5625 8.40234 29.4199 8.54393 29.4199 8.71859V29.2787C29.4199 29.4533 29.5625 29.5949 29.7383 29.5949H32.4535C32.6302 29.5949 32.7727 29.4533 32.7727 29.2787V22.0703C32.7727 21.8949 32.9152 21.7533 33.0919 21.7533H37.9552C39.3977 21.7533 40.6728 21.4655 41.7805 20.8908C42.8875 20.316 43.7467 19.5234 44.3563 18.5139C44.966 17.5051 45.2704 16.3748 45.2704 15.1228C45.2704 13.8709 44.966 12.7006 44.3563 11.6718C43.7467 10.6423 42.8829 9.8397 41.765 9.26491M41.3374 16.9549C41.0121 17.5105 40.555 17.9491 39.9655 18.2723C39.376 18.5954 38.7051 18.757 37.9537 18.757H33.0903C32.9145 18.757 32.7711 18.6154 32.7711 18.44V11.7164C32.7711 11.541 32.9137 11.3994 33.0903 11.3994H37.9537C38.7051 11.3994 39.3752 11.5564 39.9655 11.8688C40.5542 12.182 41.0113 12.6213 41.3374 13.1861C41.662 13.7517 41.8255 14.3772 41.8255 15.0636C41.8255 15.75 41.6628 16.4009 41.3374 16.9557" fill="white"/>
<path d="M54.1331 27.7976L49.8128 14.3451C49.7709 14.2143 49.6478 14.125 49.5091 14.125H46.742C46.5235 14.125 46.3701 14.3381 46.4399 14.5436L51.4969 29.3812C51.541 29.5097 51.6627 29.5959 51.799 29.5959H53.6853C53.9038 29.5959 54.0579 29.809 53.9875 30.0152L52.2011 35.2322C52.1306 35.4376 52.2847 35.6515 52.5032 35.6515H55.0906C55.2277 35.6515 55.3493 35.5646 55.3927 35.4361L62.4925 14.5436C62.5623 14.3381 62.4089 14.1258 62.1904 14.1258H59.603C59.4659 14.1258 59.3443 14.2127 59.3009 14.342L54.7389 27.8038C54.6405 28.0939 54.2261 28.0908 54.1323 27.7992" fill="white"/>
<path d="M93.918 17.7861C93.1968 16.555 92.206 15.587 90.9464 14.8799C89.686 14.1735 88.2838 13.8203 86.7399 13.8203C85.196 13.8203 83.7931 14.1735 82.5335 14.8799C81.2731 15.587 80.2823 16.5558 79.5618 17.7861C78.8406 19.018 78.4796 20.38 78.4796 21.8735C78.4796 23.3671 78.8398 24.7244 79.5618 25.9455C80.2823 27.1674 81.2731 28.1308 82.5335 28.8372C83.7931 29.5435 85.1952 29.8967 86.7399 29.8967C88.2846 29.8967 89.686 29.5435 90.9464 28.8372C92.206 28.1308 93.1968 27.1674 93.918 25.9455C94.6392 24.7244 95.0002 23.3678 95.0002 21.8735C95.0002 20.3792 94.6392 19.0173 93.918 17.7861ZM91.0533 24.4774C90.6164 25.2646 90.0214 25.8809 89.27 26.3241C88.5178 26.7681 87.6742 26.9905 86.7399 26.9905C85.8057 26.9905 84.9613 26.7689 84.2098 26.3241C83.4584 25.8801 82.8635 25.2646 82.4266 24.4774C81.9896 23.6902 81.7712 22.8223 81.7712 21.8735C81.7712 20.9248 81.9896 20.0568 82.4266 19.2697C82.8635 18.4825 83.4576 17.8669 84.2098 17.4229C84.9613 16.979 85.8049 16.7574 86.7399 16.7574C87.6749 16.7574 88.5178 16.9797 89.27 17.4229C90.0214 17.8669 90.6156 18.4825 91.0533 19.2697C91.4894 20.0568 91.7086 20.9248 91.7086 21.8735C91.7086 22.8223 91.4902 23.6902 91.0533 24.4774Z" fill="white"/>
<path d="M73.8795 14.125H77.0332C77.3113 14.125 77.4561 14.4536 77.2671 14.6567L71.9459 20.3831C71.839 20.4977 71.8328 20.6724 71.9304 20.7947L78.5407 29.0826C78.7065 29.2904 78.5577 29.5959 78.2912 29.5959H75.0508C74.9532 29.5959 74.861 29.5512 74.8006 29.4758L67.9486 20.8747C67.8518 20.7532 67.858 20.5808 67.9626 20.4654L73.6432 14.2289C73.7036 14.1627 73.7896 14.125 73.8795 14.125Z" fill="white"/>
<path d="M66.8351 29.5971H64.2725C64.0966 29.5971 63.9541 29.4555 63.9541 29.2808V7.50961C63.9541 7.33494 64.0966 7.19336 64.2725 7.19336H66.8351C67.0117 7.19336 67.1535 7.33494 67.1535 7.50961V29.2808C67.1535 29.4555 67.0109 29.5971 66.8351 29.5971Z" fill="white"/>
<path d="M2.20781 0.0869582L8.61742 2.20914C9.30223 2.43613 9.76393 3.07248 9.76393 3.78962V34.2104C9.76393 34.9275 9.30223 35.5639 8.61742 35.7909L2.20781 37.9131C1.12172 38.2732 0 37.4698 0 36.3326V1.66744C0 0.53017 1.12095 -0.273151 2.20781 0.0869582Z" fill="white"/>
<path d="M11.0967 12.6397V5.33905C11.0967 4.20178 12.2184 3.39923 13.3045 3.75857L19.7141 5.87998C20.3989 6.10697 20.8614 6.74332 20.8614 7.46046V12.639C20.8614 13.5592 20.11 14.3048 19.1842 14.3048H12.7746C11.8481 14.3048 11.0975 13.5585 11.0975 12.639" fill="white"/>
<path d="M12.7748 15.6309H19.1844C20.1109 15.6309 20.8616 16.3772 20.8616 17.2968V22.4768C20.8616 23.1939 20.3991 23.8303 19.7143 24.0573L13.3055 26.1794C12.2194 26.5388 11.0977 25.7362 11.0977 24.599V17.2968C11.0977 16.3765 11.8491 15.6309 12.7748 15.6309Z" fill="white"/>
</g>
<defs>
<clipPath id="clip0_2_1597">
<rect width="95" height="38" fill="white"/>
</clipPath>
</defs>
</svg>
