<svg width="15" height="15" viewBox="0 0 15 15" fill="none" xmlns="http://www.w3.org/2000/svg">
<g clip-path="url(#clip0_2_1908)">
<path d="M14.1599 4.29074C14.1599 4.29074 14.0203 3.30466 13.5901 2.87167C13.0454 2.30181 12.4364 2.29902 12.157 2.2655C10.1569 2.12024 7.154 2.12024 7.154 2.12024H7.14841C7.14841 2.12024 4.14546 2.12024 2.14536 2.2655C1.86602 2.29902 1.25705 2.30181 0.712327 2.87167C0.282137 3.30466 0.145259 4.29074 0.145259 4.29074C0.145259 4.29074 0 5.45002 0 6.6065V7.69035C0 8.84684 0.142465 10.0061 0.142465 10.0061C0.142465 10.0061 0.282137 10.9922 0.709533 11.4252C1.25425 11.995 1.96937 11.9755 2.28783 12.0369C3.43314 12.1459 7.1512 12.1794 7.1512 12.1794C7.1512 12.1794 10.1569 12.1738 12.157 12.0314C12.4364 11.9978 13.0454 11.995 13.5901 11.4252C14.0203 10.9922 14.1599 10.0061 14.1599 10.0061C14.1599 10.0061 14.3024 8.84963 14.3024 7.69035V6.6065C14.3024 5.45002 14.1599 4.29074 14.1599 4.29074ZM5.67347 9.00606V4.98631L9.5368 7.00317L5.67347 9.00606Z" fill="white"/>
</g>
<defs>
<clipPath id="clip0_2_1908">
<rect width="14.3024" height="14.3024" fill="white"/>
</clipPath>
</defs>
</svg>
